<svg width="32" height="30" viewBox="0 0 32 30" fill="none" xmlns="http://www.w3.org/2000/svg">
<path fill-rule="evenodd" clip-rule="evenodd" d="M17.686 13.4845V13.442C17.6767 13.4563 17.6638 13.4705 17.6558 13.4845H17.686Z" fill="white"/>
<path fill-rule="evenodd" clip-rule="evenodd" d="M0.913208 0.487183V29.4259H31.8854V0.487183H0.913208ZM10.5467 24.5287H5.95154V11.6115H10.5467V24.5287ZM8.24913 9.84844H8.21877C6.67731 9.84844 5.67817 8.85619 5.67817 7.61596C5.67817 6.34851 6.70651 5.38437 8.27922 5.38437C9.85227 5.38437 10.8189 6.34851 10.849 7.61596C10.849 8.85619 9.85227 9.84844 8.24913 9.84844ZM27.1205 24.5287H22.5241V17.6179C22.5241 15.8822 21.86 14.6974 20.1964 14.6974C18.9259 14.6974 18.1709 15.4951 17.8383 16.2679C17.7174 16.5439 17.6859 16.9276 17.6859 17.3147V24.5287H13.0886C13.0886 24.5287 13.1502 12.8233 13.0886 11.6115H17.6859V13.4419C18.2967 12.5638 19.3867 11.3083 21.8284 11.3083C24.8532 11.3083 27.1205 13.154 27.1205 17.1213V24.5287Z" fill="white"/>
</svg>
