<svg width="35" height="41" viewBox="0 0 35 41" fill="none" xmlns="http://www.w3.org/2000/svg">
<path d="M33.558 7.31384H1.44198C0.645586 7.31384 0 8.0701 0 9.00301V31.997C0 32.9299 0.645586 33.6861 1.44198 33.6861H33.558C34.3544 33.6861 35 32.9299 35 31.997V9.00301C35 8.0701 34.3544 7.31384 33.558 7.31384ZM1.44198 8.64042H33.558C33.6935 8.64119 33.8128 8.74511 33.8525 8.89689L17.5 20.8626L1.14754 8.89689C1.18718 8.74511 1.30646 8.64119 1.44198 8.64042ZM1.13244 10.4092L12.8947 19.0142L1.13244 29.9452V10.4092ZM33.8676 31.9881C33.8676 32.1884 33.7289 32.3507 33.558 32.3507H1.44198C1.27107 32.3507 1.13244 32.1883 1.13244 31.9881V31.6344L13.9139 19.8013L17.198 22.2069C17.3825 22.3432 17.6175 22.3432 17.802 22.2069L21.0861 19.8013L33.8676 31.6344V31.9881ZM33.8676 29.9452L22.0751 19.0496L33.8676 10.4888V29.9452Z" fill="white"/>
</svg>
